<svg xmlns="http://www.w3.org/2000/svg" version="1.1" xmlns:xlink="http://www.w3.org/1999/xlink" viewBox="0 0 200 200"><rect width="200" height="200" fill="url('#gradient')"></rect><defs><linearGradient id="gradient" gradientTransform="rotate(50 0.5 0.5)"><stop offset="0%" stop-color="#e8750c"></stop><stop offset="100%" stop-color="#e8750c"></stop></linearGradient></defs><g><g fill="#0e5278" transform="matrix(5.5425022182786154,0,0,5.5425022182786154,33.04649380023436,138.85466033982934)" stroke="#d9e241" stroke-width="0.2"><path d="M5.75 0L1.07 0L1.07-14.22L5.65-14.22Q7.54-14.22 9.04-13.36Q10.55-12.51 11.39-10.95Q12.24-9.39 12.25-7.46L12.25-7.46L12.25-6.81Q12.25-4.85 11.42-3.31Q10.60-1.76 9.10-0.88Q7.60-0.01 5.75 0L5.75 0ZM5.65-11.57L4.50-11.57L4.50-2.64L5.69-2.64Q7.17-2.64 7.96-3.69Q8.75-4.74 8.75-6.81L8.75-6.81L8.75-7.42Q8.75-9.48 7.96-10.53Q7.17-11.57 5.65-11.57L5.65-11.57ZM19.67-4.46L19.67-14.22L23.09-14.22L23.09-4.46Q23.09-3.11 22.46-2.04Q21.83-0.98 20.70-0.39Q19.57 0.20 18.18 0.20L18.18 0.20Q15.86 0.20 14.57-0.98Q13.28-2.15 13.28-4.30L13.28-4.30L16.72-4.30Q16.72-3.32 17.06-2.88Q17.39-2.44 18.18-2.44L18.18-2.44Q18.90-2.44 19.28-2.97Q19.67-3.51 19.67-4.46L19.67-4.46Z"></path></g></g></svg>